<mxfile host="app.diagrams.net" modified="2021-01-05T12:01:58.087Z" agent="5.0 (Windows)" etag="rotDAup8CU5ivnGdBhfr" version="14.1.8" type="github">
  <diagram id="VEMIzEP-N0QwyT1pVR0c" name="Page-1">
    <mxGraphModel dx="1038" dy="557" grid="1" gridSize="10" guides="1" tooltips="1" connect="1" arrows="1" fold="1" page="1" pageScale="1" pageWidth="850" pageHeight="1100" math="0" shadow="0">
      <root>
        <mxCell id="0" />
        <mxCell id="1" parent="0" />
        <mxCell id="a9AHqycZtJ5YnmLOMqJh-13" style="edgeStyle=orthogonalEdgeStyle;rounded=0;orthogonalLoop=1;jettySize=auto;html=1;exitX=0.5;exitY=0;exitDx=0;exitDy=0;entryX=0;entryY=0.5;entryDx=0;entryDy=0;" edge="1" parent="1" source="a9AHqycZtJ5YnmLOMqJh-1" target="a9AHqycZtJ5YnmLOMqJh-5">
          <mxGeometry relative="1" as="geometry" />
        </mxCell>
        <mxCell id="a9AHqycZtJ5YnmLOMqJh-14" style="edgeStyle=orthogonalEdgeStyle;rounded=0;orthogonalLoop=1;jettySize=auto;html=1;exitX=0.5;exitY=1;exitDx=0;exitDy=0;entryX=0;entryY=0.5;entryDx=0;entryDy=0;" edge="1" parent="1" source="a9AHqycZtJ5YnmLOMqJh-1" target="a9AHqycZtJ5YnmLOMqJh-9">
          <mxGeometry relative="1" as="geometry" />
        </mxCell>
        <mxCell id="a9AHqycZtJ5YnmLOMqJh-1" value="" style="rounded=1;whiteSpace=wrap;html=1;" vertex="1" parent="1">
          <mxGeometry x="80" y="210" width="120" height="60" as="geometry" />
        </mxCell>
        <mxCell id="a9AHqycZtJ5YnmLOMqJh-2" value="PLC" style="text;html=1;strokeColor=none;fillColor=none;align=center;verticalAlign=middle;whiteSpace=wrap;rounded=0;" vertex="1" parent="1">
          <mxGeometry x="120" y="230" width="40" height="20" as="geometry" />
        </mxCell>
        <mxCell id="a9AHqycZtJ5YnmLOMqJh-3" value="" style="rounded=1;whiteSpace=wrap;html=1;" vertex="1" parent="1">
          <mxGeometry x="240" y="140" width="120" height="60" as="geometry" />
        </mxCell>
        <mxCell id="a9AHqycZtJ5YnmLOMqJh-4" value="&lt;div&gt;FT Linx Enterprise&lt;/div&gt;&lt;div&gt;OPC UA Server&lt;br&gt;&lt;/div&gt;" style="text;html=1;strokeColor=none;fillColor=none;align=center;verticalAlign=middle;whiteSpace=wrap;rounded=0;" vertex="1" parent="1">
          <mxGeometry x="250" y="150" width="100" height="40" as="geometry" />
        </mxCell>
        <mxCell id="a9AHqycZtJ5YnmLOMqJh-5" value="" style="rounded=1;whiteSpace=wrap;html=1;" vertex="1" parent="1">
          <mxGeometry x="240" y="140" width="120" height="60" as="geometry" />
        </mxCell>
        <mxCell id="a9AHqycZtJ5YnmLOMqJh-6" value="&lt;div&gt;FT Linx Enterprise&lt;/div&gt;&lt;div&gt;OPC UA Server&lt;br&gt;&lt;/div&gt;" style="text;html=1;strokeColor=none;fillColor=none;align=center;verticalAlign=middle;whiteSpace=wrap;rounded=0;" vertex="1" parent="1">
          <mxGeometry x="250" y="150" width="100" height="40" as="geometry" />
        </mxCell>
        <mxCell id="a9AHqycZtJ5YnmLOMqJh-7" value="" style="rounded=1;whiteSpace=wrap;html=1;" vertex="1" parent="1">
          <mxGeometry x="240" y="280" width="120" height="60" as="geometry" />
        </mxCell>
        <mxCell id="a9AHqycZtJ5YnmLOMqJh-8" value="&lt;div&gt;FT Linx Enterprise&lt;/div&gt;&lt;div&gt;OPC UA Server&lt;br&gt;&lt;/div&gt;" style="text;html=1;strokeColor=none;fillColor=none;align=center;verticalAlign=middle;whiteSpace=wrap;rounded=0;" vertex="1" parent="1">
          <mxGeometry x="250" y="290" width="100" height="40" as="geometry" />
        </mxCell>
        <mxCell id="a9AHqycZtJ5YnmLOMqJh-9" value="" style="rounded=1;whiteSpace=wrap;html=1;" vertex="1" parent="1">
          <mxGeometry x="240" y="280" width="120" height="60" as="geometry" />
        </mxCell>
        <mxCell id="a9AHqycZtJ5YnmLOMqJh-10" value="&lt;div&gt;FT Linx Classic&lt;/div&gt;&lt;div&gt;OPC DA Server&lt;br&gt;&lt;/div&gt;" style="text;html=1;strokeColor=none;fillColor=none;align=center;verticalAlign=middle;whiteSpace=wrap;rounded=0;" vertex="1" parent="1">
          <mxGeometry x="250" y="290" width="100" height="40" as="geometry" />
        </mxCell>
        <mxCell id="a9AHqycZtJ5YnmLOMqJh-15" value="" style="whiteSpace=wrap;html=1;aspect=fixed;" vertex="1" parent="1">
          <mxGeometry x="400" y="120" width="240" height="240" as="geometry" />
        </mxCell>
        <mxCell id="a9AHqycZtJ5YnmLOMqJh-16" value="" style="rounded=1;whiteSpace=wrap;html=1;" vertex="1" parent="1">
          <mxGeometry x="240" y="140" width="120" height="60" as="geometry" />
        </mxCell>
        <mxCell id="a9AHqycZtJ5YnmLOMqJh-17" value="&lt;div&gt;FT Linx Enterprise&lt;/div&gt;&lt;div&gt;OPC UA Server&lt;br&gt;&lt;/div&gt;" style="text;html=1;strokeColor=none;fillColor=none;align=center;verticalAlign=middle;whiteSpace=wrap;rounded=0;" vertex="1" parent="1">
          <mxGeometry x="250" y="150" width="100" height="40" as="geometry" />
        </mxCell>
        <mxCell id="a9AHqycZtJ5YnmLOMqJh-41" style="edgeStyle=orthogonalEdgeStyle;rounded=0;orthogonalLoop=1;jettySize=auto;html=1;exitX=1;exitY=0.5;exitDx=0;exitDy=0;entryX=0;entryY=0.5;entryDx=0;entryDy=0;" edge="1" parent="1" source="a9AHqycZtJ5YnmLOMqJh-18" target="a9AHqycZtJ5YnmLOMqJh-29">
          <mxGeometry relative="1" as="geometry" />
        </mxCell>
        <mxCell id="a9AHqycZtJ5YnmLOMqJh-18" value="" style="rounded=1;whiteSpace=wrap;html=1;" vertex="1" parent="1">
          <mxGeometry x="240" y="140" width="120" height="60" as="geometry" />
        </mxCell>
        <mxCell id="a9AHqycZtJ5YnmLOMqJh-19" value="&lt;div&gt;FT Linx Enterprise&lt;/div&gt;&lt;div&gt;OPC UA Server&lt;br&gt;&lt;/div&gt;" style="text;html=1;strokeColor=none;fillColor=none;align=center;verticalAlign=middle;whiteSpace=wrap;rounded=0;" vertex="1" parent="1">
          <mxGeometry x="250" y="150" width="100" height="40" as="geometry" />
        </mxCell>
        <mxCell id="a9AHqycZtJ5YnmLOMqJh-25" value="" style="group" vertex="1" connectable="0" parent="1">
          <mxGeometry x="460" y="140" width="120" height="60" as="geometry" />
        </mxCell>
        <mxCell id="a9AHqycZtJ5YnmLOMqJh-20" value="" style="rounded=1;whiteSpace=wrap;html=1;" vertex="1" parent="a9AHqycZtJ5YnmLOMqJh-25">
          <mxGeometry width="120" height="60" as="geometry" />
        </mxCell>
        <mxCell id="a9AHqycZtJ5YnmLOMqJh-21" value="&lt;div&gt;FT Linx Enterprise&lt;/div&gt;&lt;div&gt;OPC UA Server&lt;br&gt;&lt;/div&gt;" style="text;html=1;strokeColor=none;fillColor=none;align=center;verticalAlign=middle;whiteSpace=wrap;rounded=0;" vertex="1" parent="a9AHqycZtJ5YnmLOMqJh-25">
          <mxGeometry x="10" y="10" width="100" height="40" as="geometry" />
        </mxCell>
        <mxCell id="a9AHqycZtJ5YnmLOMqJh-22" value="" style="rounded=1;whiteSpace=wrap;html=1;" vertex="1" parent="a9AHqycZtJ5YnmLOMqJh-25">
          <mxGeometry width="120" height="60" as="geometry" />
        </mxCell>
        <mxCell id="a9AHqycZtJ5YnmLOMqJh-23" value="&lt;div&gt;Channel:&lt;/div&gt;&lt;div&gt;OPC UA Client&lt;br&gt;&lt;/div&gt;" style="text;html=1;strokeColor=none;fillColor=none;align=center;verticalAlign=middle;whiteSpace=wrap;rounded=0;" vertex="1" parent="a9AHqycZtJ5YnmLOMqJh-25">
          <mxGeometry x="10" y="10" width="100" height="40" as="geometry" />
        </mxCell>
        <mxCell id="a9AHqycZtJ5YnmLOMqJh-26" value="" style="group" vertex="1" connectable="0" parent="1">
          <mxGeometry x="460" y="140" width="120" height="60" as="geometry" />
        </mxCell>
        <mxCell id="a9AHqycZtJ5YnmLOMqJh-27" value="" style="rounded=1;whiteSpace=wrap;html=1;" vertex="1" parent="a9AHqycZtJ5YnmLOMqJh-26">
          <mxGeometry width="120" height="60" as="geometry" />
        </mxCell>
        <mxCell id="a9AHqycZtJ5YnmLOMqJh-28" value="&lt;div&gt;FT Linx Enterprise&lt;/div&gt;&lt;div&gt;OPC UA Server&lt;br&gt;&lt;/div&gt;" style="text;html=1;strokeColor=none;fillColor=none;align=center;verticalAlign=middle;whiteSpace=wrap;rounded=0;" vertex="1" parent="a9AHqycZtJ5YnmLOMqJh-26">
          <mxGeometry x="10" y="10" width="100" height="40" as="geometry" />
        </mxCell>
        <mxCell id="a9AHqycZtJ5YnmLOMqJh-29" value="" style="rounded=1;whiteSpace=wrap;html=1;" vertex="1" parent="a9AHqycZtJ5YnmLOMqJh-26">
          <mxGeometry width="120" height="60" as="geometry" />
        </mxCell>
        <mxCell id="a9AHqycZtJ5YnmLOMqJh-30" value="&lt;div&gt;Channel:&lt;/div&gt;&lt;div&gt;OPC UA Client&lt;br&gt;&lt;/div&gt;" style="text;html=1;strokeColor=none;fillColor=none;align=center;verticalAlign=middle;whiteSpace=wrap;rounded=0;" vertex="1" parent="a9AHqycZtJ5YnmLOMqJh-26">
          <mxGeometry x="10" y="10" width="100" height="40" as="geometry" />
        </mxCell>
        <mxCell id="a9AHqycZtJ5YnmLOMqJh-31" value="" style="group" vertex="1" connectable="0" parent="1">
          <mxGeometry x="460" y="280" width="120" height="60" as="geometry" />
        </mxCell>
        <mxCell id="a9AHqycZtJ5YnmLOMqJh-32" value="" style="rounded=1;whiteSpace=wrap;html=1;" vertex="1" parent="a9AHqycZtJ5YnmLOMqJh-31">
          <mxGeometry width="120" height="60" as="geometry" />
        </mxCell>
        <mxCell id="a9AHqycZtJ5YnmLOMqJh-33" value="&lt;div&gt;FT Linx Enterprise&lt;/div&gt;&lt;div&gt;OPC UA Server&lt;br&gt;&lt;/div&gt;" style="text;html=1;strokeColor=none;fillColor=none;align=center;verticalAlign=middle;whiteSpace=wrap;rounded=0;" vertex="1" parent="a9AHqycZtJ5YnmLOMqJh-31">
          <mxGeometry x="10" y="10" width="100" height="40" as="geometry" />
        </mxCell>
        <mxCell id="a9AHqycZtJ5YnmLOMqJh-34" value="" style="rounded=1;whiteSpace=wrap;html=1;" vertex="1" parent="a9AHqycZtJ5YnmLOMqJh-31">
          <mxGeometry width="120" height="60" as="geometry" />
        </mxCell>
        <mxCell id="a9AHqycZtJ5YnmLOMqJh-35" value="&lt;div&gt;Channel:&lt;/div&gt;&lt;div&gt;OPC UA Client&lt;br&gt;&lt;/div&gt;" style="text;html=1;strokeColor=none;fillColor=none;align=center;verticalAlign=middle;whiteSpace=wrap;rounded=0;" vertex="1" parent="a9AHqycZtJ5YnmLOMqJh-31">
          <mxGeometry x="10" y="10" width="100" height="40" as="geometry" />
        </mxCell>
        <mxCell id="a9AHqycZtJ5YnmLOMqJh-36" value="" style="group" vertex="1" connectable="0" parent="1">
          <mxGeometry x="460" y="280" width="120" height="60" as="geometry" />
        </mxCell>
        <mxCell id="a9AHqycZtJ5YnmLOMqJh-37" value="" style="rounded=1;whiteSpace=wrap;html=1;" vertex="1" parent="a9AHqycZtJ5YnmLOMqJh-36">
          <mxGeometry width="120" height="60" as="geometry" />
        </mxCell>
        <mxCell id="a9AHqycZtJ5YnmLOMqJh-38" value="&lt;div&gt;FT Linx Enterprise&lt;/div&gt;&lt;div&gt;OPC UA Server&lt;br&gt;&lt;/div&gt;" style="text;html=1;strokeColor=none;fillColor=none;align=center;verticalAlign=middle;whiteSpace=wrap;rounded=0;" vertex="1" parent="a9AHqycZtJ5YnmLOMqJh-36">
          <mxGeometry x="10" y="10" width="100" height="40" as="geometry" />
        </mxCell>
        <mxCell id="a9AHqycZtJ5YnmLOMqJh-39" value="" style="rounded=1;whiteSpace=wrap;html=1;" vertex="1" parent="a9AHqycZtJ5YnmLOMqJh-36">
          <mxGeometry width="120" height="60" as="geometry" />
        </mxCell>
        <mxCell id="a9AHqycZtJ5YnmLOMqJh-40" value="&lt;div&gt;Channel:&lt;/div&gt;&lt;div&gt;OPC DA Client&lt;br&gt;&lt;/div&gt;" style="text;html=1;strokeColor=none;fillColor=none;align=center;verticalAlign=middle;whiteSpace=wrap;rounded=0;" vertex="1" parent="a9AHqycZtJ5YnmLOMqJh-36">
          <mxGeometry x="10" y="10" width="100" height="40" as="geometry" />
        </mxCell>
        <mxCell id="a9AHqycZtJ5YnmLOMqJh-43" style="edgeStyle=orthogonalEdgeStyle;rounded=0;orthogonalLoop=1;jettySize=auto;html=1;exitX=1;exitY=0.5;exitDx=0;exitDy=0;entryX=0;entryY=0.5;entryDx=0;entryDy=0;" edge="1" parent="1" source="a9AHqycZtJ5YnmLOMqJh-9" target="a9AHqycZtJ5YnmLOMqJh-39">
          <mxGeometry relative="1" as="geometry" />
        </mxCell>
        <mxCell id="a9AHqycZtJ5YnmLOMqJh-44" value="&lt;b&gt;&lt;font style=&quot;font-size: 14px&quot;&gt;KEP Server Enterprise&lt;/font&gt;&lt;/b&gt;" style="text;html=1;strokeColor=none;fillColor=none;align=center;verticalAlign=middle;whiteSpace=wrap;rounded=0;" vertex="1" parent="1">
          <mxGeometry x="430" y="230" width="180" height="20" as="geometry" />
        </mxCell>
      </root>
    </mxGraphModel>
  </diagram>
</mxfile>
